<svg version="1.1" xmlns="http://www.w3.org/2000/svg" xmlns:xlink="http://www.w3.org/1999/xlink" width="38" height="45.49999" viewBox="0,0,38,45.49999"><defs><linearGradient x1="221" y1="180" x2="259" y2="180" gradientUnits="userSpaceOnUse" id="color-1"><stop offset="0" stop-color="#000000"/><stop offset="1" stop-color="#ffffff"/></linearGradient><linearGradient x1="223.75" y1="180" x2="256.25" y2="180" gradientUnits="userSpaceOnUse" id="color-2"><stop offset="0" stop-color="#ffffff"/><stop offset="1" stop-color="#1a1a1a"/></linearGradient><linearGradient x1="221" y1="180" x2="259" y2="180" gradientUnits="userSpaceOnUse" id="color-3"><stop offset="0" stop-color="#ff0000"/><stop offset="1" stop-color="#ffffff"/></linearGradient><linearGradient x1="223.75" y1="180" x2="256.25" y2="180" gradientUnits="userSpaceOnUse" id="color-4"><stop offset="0" stop-color="#ffffff"/><stop offset="1" stop-color="#ff0000"/></linearGradient></defs><g transform="translate(-221,-153.08334)"><g data-paper-data="{&quot;isPaintingLayer&quot;:true}" fill-rule="nonzero" stroke-linejoin="miter" stroke-miterlimit="10" stroke-dasharray="" stroke-dashoffset="0" style="mix-blend-mode: normal"><path d="M259,180c0,10.26329 -8.50659,18.58333 -19,18.58333c-10.49341,0 -19,-8.32004 -19,-18.58333c0,-10.26329 8.50659,-18.58333 19,-18.58333c10.49341,0 19,8.32004 19,18.58333z" fill="url(#color-1)" stroke="none" stroke-width="2" stroke-linecap="butt"/><path d="M256.25,180c0,8.97463 -7.27537,16.25 -16.25,16.25c-8.97463,0 -16.25,-7.27537 -16.25,-16.25c0,-8.97463 7.27537,-16.25 16.25,-16.25c8.97463,0 16.25,7.27537 16.25,16.25z" fill="url(#color-2)" stroke="none" stroke-width="0" stroke-linecap="butt"/><path d="M259,180c0,10.26329 -8.50659,18.58333 -19,18.58333c-10.49341,0 -19,-8.32004 -19,-18.58333c0,-10.26329 8.50659,-18.58333 19,-18.58333c10.49341,0 19,8.32004 19,18.58333z" fill="url(#color-3)" stroke="none" stroke-width="2" stroke-linecap="butt"/><path d="M256.25,180c0,8.97463 -7.27537,16.25 -16.25,16.25c-8.97463,0 -16.25,-7.27537 -16.25,-16.25c0,-8.97463 7.27537,-16.25 16.25,-16.25c8.97463,0 16.25,7.27537 16.25,16.25z" fill="url(#color-4)" stroke="none" stroke-width="0" stroke-linecap="butt"/><path d="M248.08334,153.08334z" fill="#ffffff" stroke="none" stroke-width="0" stroke-linecap="butt"/><path d="M244.94225,187.97226l-9.88451,-15.94451" fill="#ffffff" stroke="#000000" stroke-width="2" stroke-linecap="round"/><path d="M245.87266,172.45677l-11.74533,15.08646" fill="none" stroke="#000000" stroke-width="2" stroke-linecap="round"/></g></g></svg>