<svg version="1.1" xmlns="http://www.w3.org/2000/svg" xmlns:xlink="http://www.w3.org/1999/xlink" width="29.00882" height="74.65977" viewBox="0,0,29.00882,74.65977"><g transform="translate(-235.20525,-105.32471)"><g data-paper-data="{&quot;isPaintingLayer&quot;:true}" fill-rule="nonzero" stroke-linecap="butt" stroke-linejoin="miter" stroke-miterlimit="10" stroke-dasharray="" stroke-dashoffset="0" style="mix-blend-mode: normal"><path d="M249.465,164.45448c0.55228,0.01657 0.98657,0.47772 0.97,1.03c-0.01657,0.55228 -0.47772,0.98657 -1.03,0.97h-0.07l-3.23,-0.2l-0.17,-0.05c-0.05318,0.00563 -0.10682,0.00563 -0.16,0l-2.56,-1.1l-2,5.34l1.55,2.18c0,0.05 0,0.05 0,0.05c0.0349,0.05599 0.06183,0.11657 0.08,0.18c0.03045,0.05955 0.05073,0.12377 0.06,0.19v0c0.00533,0.04317 0.00533,0.08683 0,0.13c0.00985,0.06965 0.00985,0.14035 0,0.21c-0.01284,0.06044 -0.03656,0.11804 -0.07,0.17c-0.02059,0.05933 -0.04741,0.11631 -0.08,0.17c-0.05,0.06 -0.1,0.1 -0.15,0.15c-0.02718,0.03577 -0.05728,0.06922 -0.09,0.1v0l-0.11,0.06c-0.07705,0.03246 -0.15758,0.05595 -0.24,0.07h-0.06l-0.69,0.08c0,0.07 0,0.07 0,0.07c0.00893,0.06637 0.00893,0.13363 0,0.2v0l-1.18,3.53h0.81c0.55228,0 1,0.44772 1,1c0,0.55228 -0.44772,1 -1,1v0l-2.07,-0.08h-0.12c-0.07631,0.01042 -0.15369,0.01042 -0.23,0h-0.06c-0.09542,-0.03759 -0.18344,-0.09176 -0.26,-0.16v0c-0.23401,-0.1948 -0.36653,-0.48559 -0.36,-0.79c0.01307,-0.16614 0.06441,-0.327 0.15,-0.47l0.5,-1.48c-0.08666,0.05406 -0.18109,0.09453 -0.28,0.12h-0.19c-0.48586,0.00884 -0.90775,-0.33289 -1,-0.81l-0.59,-2.32c-0.0415,-0.08139 -0.06857,-0.16936 -0.08,-0.26c-0.05476,-0.52556 0.30881,-1.00302 0.83,-1.09v0h0.05l2,-0.21l-0.11,-1.5c-0.00569,-0.06321 -0.00569,-0.12679 0,-0.19v0c-0.01519,-0.10277 -0.01519,-0.20723 0,-0.31c-0.0042,-0.04657 -0.0042,-0.09343 0,-0.14c0,-0.02 0,-0.08 0,-0.08l2,-5.31l-1.91,0.26l-2.62,1.82c-0.1672,0.11671 -0.36609,0.17952 -0.57,0.18c-0.4076,-0.04936 -0.74362,-0.34285 -0.84735,-0.74011c-0.10373,-0.39726 0.04591,-0.81756 0.37735,-1.05989l2.81,-2v0l0.18,-0.08l0.19,-0.06v0l3.21,-0.45l0.28,-0.77c-1.8194,-0.85653 -2.72006,-2.93065 -2.1038,-4.84482c0.61625,-1.91418 2.55782,-3.07326 4.5352,-2.70745c1.97738,0.36581 3.37577,2.1428 3.26643,4.15075c-0.10934,2.00795 -1.69242,3.62258 -3.69783,3.77152l-0.29,0.79l2.5,1.07l3.06,0.19zM239.005,175.63448l0.4,-1.19l-0.62,0.07z" fill="#ffffff" stroke="none" stroke-width="1"/><path d="M249.465,164.45448c0.55228,0.01657 0.98657,0.47772 0.97,1.03c-0.01657,0.55228 -0.47772,0.98657 -1.03,0.97h-0.07l-3.23,-0.2l-0.17,-0.05c-0.05318,0.00563 -0.10682,0.00563 -0.16,0l-2.56,-1.1l-2,5.34l1.55,2.18c0,0.05 0,0.05 0,0.05c0.0349,0.05599 0.06183,0.11657 0.08,0.18c0.03045,0.05955 0.05073,0.12377 0.06,0.19v0c0.00533,0.04317 0.00533,0.08683 0,0.13c0.00985,0.06965 0.00985,0.14035 0,0.21c-0.01284,0.06044 -0.03656,0.11804 -0.07,0.17c-0.02059,0.05933 -0.04741,0.11631 -0.08,0.17c-0.05,0.06 -0.1,0.1 -0.15,0.15c-0.02718,0.03577 -0.05728,0.06922 -0.09,0.1v0l-0.11,0.06c-0.07705,0.03246 -0.15758,0.05595 -0.24,0.07h-0.06l-0.69,0.08c0,0.07 0,0.07 0,0.07c0.00893,0.06637 0.00893,0.13363 0,0.2v0l-1.18,3.53h0.81c0.55228,0 1,0.44772 1,1c0,0.55228 -0.44772,1 -1,1v0l-2.07,-0.08h-0.12c-0.07631,0.01042 -0.15369,0.01042 -0.23,0h-0.06c-0.09542,-0.03759 -0.18344,-0.09176 -0.26,-0.16v0c-0.23401,-0.1948 -0.36653,-0.48559 -0.36,-0.79c0.01307,-0.16614 0.06441,-0.327 0.15,-0.47l0.5,-1.48c-0.08666,0.05406 -0.18109,0.09453 -0.28,0.12h-0.19c-0.48586,0.00884 -0.90775,-0.33289 -1,-0.81l-0.59,-2.32c-0.0415,-0.08139 -0.06857,-0.16936 -0.08,-0.26c-0.05476,-0.52556 0.30881,-1.00302 0.83,-1.09v0h0.05l2,-0.21l-0.11,-1.5c-0.00569,-0.06321 -0.00569,-0.12679 0,-0.19v0c-0.01519,-0.10277 -0.01519,-0.20723 0,-0.31c-0.0042,-0.04657 -0.0042,-0.09343 0,-0.14c0,-0.02 0,-0.08 0,-0.08l2,-5.31l-1.91,0.26l-2.62,1.82c-0.1672,0.11671 -0.36609,0.17952 -0.57,0.18c-0.4076,-0.04936 -0.74362,-0.34285 -0.84735,-0.74011c-0.10373,-0.39726 0.04591,-0.81756 0.37735,-1.05989l2.81,-2v0l0.18,-0.08l0.19,-0.06v0l3.21,-0.45l0.28,-0.77c-1.8194,-0.85653 -2.72006,-2.93065 -2.1038,-4.84482c0.61625,-1.91418 2.55782,-3.07326 4.5352,-2.70745c1.97738,0.36581 3.37577,2.1428 3.26643,4.15075c-0.10934,2.00795 -1.69242,3.62258 -3.69783,3.77152l-0.29,0.79l2.5,1.07l3.06,0.19zM239.005,175.63448l0.4,-1.19l-0.62,0.07z" fill="#ff0000" stroke="none" stroke-width="1"/><path d="M237.71098,169.00519l2.00628,-5.79465c0.01585,0.00152 0.03192,0.00229 0.04818,0.00229c0.04574,0 0.09005,-0.00614 0.13215,-0.01765l0.60451,-0.15113l-0.00284,-0.01136c0.01008,0.00123 0.02015,0.00245 0.03023,0.00368l0.02355,-0.01818l0.00336,0.00895l0.06632,-0.02487c0.01032,0.00391 0.02063,0.00781 0.03095,0.01172l0.05215,-0.04288l0.04763,-0.01786l0.012,0.02881l0.40676,-0.16949l0.31126,-0.07183c0.16571,-0.03457 0.30131,-0.15118 0.3624,-0.30542c0.04657,-0.07597 0.07342,-0.16533 0.07342,-0.26096c0,-0.0126 -0.00047,-0.0251 -0.00138,-0.03747l2.73962,0.94854c0.0386,0.05325 0.0902,0.10012 0.15207,0.13599l0.39364,0.23824c0.04001,0.02421 0.07838,0.04745 0.11527,0.06978c0.04215,0.07171 0.10669,0.13455 0.1879,0.17872l-2.47212,7.14009z" fill="#ff0000" stroke="none" stroke-width="0"/><path d="M236.9592,166.80715l-1.10725,-1.32015l0.15046,-0.20627c0.02373,-0.03252 0.0465,-0.06372 0.06837,-0.09371c0.09764,-0.03515 0.17686,-0.1079 0.21462,-0.21008c0.00375,-0.01017 0.00704,-0.02048 0.00985,-0.03084l0.0192,-0.06807l1.55544,-1.10919l0.03487,-0.00345l-0.00198,-0.02002l0.26026,-0.18559c0.34406,-0.0821 0.63112,-0.26012 1.05644,-0.49242l0.35851,-0.0616c0.00651,-0.00097 0.01297,-0.00206 0.0194,-0.00327l1.00944,1.20352z" fill="#ff0000" stroke="none" stroke-width="0"/><path d="M246.97805,164.36319l-0.50854,1.64627l-0.2549,-0.01453c-0.04019,-0.00229 -0.07875,-0.0045 -0.11581,-0.00661c-0.08249,-0.06296 -0.18658,-0.09007 -0.2929,-0.06636c-0.01058,0.00236 -0.02102,0.0052 -0.03125,0.00846l-0.0676,0.02079l-1.77552,-0.70516l-0.02181,-0.02743l-0.01574,0.01253l-0.29708,-0.11799c-0.25559,-0.24452 -0.56085,-0.38914 -0.98669,-0.62046l-0.24621,-0.26779c-0.00434,-0.00494 -0.00876,-0.00977 -0.01327,-0.01452l0.46361,-1.50083z" fill="#ff0000" stroke="none" stroke-width="0"/><path d="M249.10594,164.52343l0.00226,1.72303l-0.24775,0.06167c-0.03906,0.00972 -0.07655,0.01904 -0.11257,0.02801c-0.09745,-0.03568 -0.20489,-0.03071 -0.29941,0.02344c-0.00941,0.0054 -0.01854,0.01119 -0.02734,0.01734l-0.0584,0.03989l-1.90474,-0.14722l-0.02895,-0.01973l-0.01133,0.01663l-0.3187,-0.02464c-0.31658,-0.15778 -0.65099,-0.20542 -1.12626,-0.30013l-0.31452,-0.18278c-0.00561,-0.00343 -0.01126,-0.00674 -0.01698,-0.00993l-0.00206,-1.5708z" fill="#ff0000" stroke="none" stroke-width="0"/><path d="M240.54314,156.23388l0.03421,-0.18096c0.29115,-0.17051 0.53568,-0.4299 0.67433,-0.70279l6.22454,1.17681c0.02989,0.23893 0.10397,0.48605 0.21179,0.71799l-0.06202,0.32804z" fill="#8e97ff" stroke="none" stroke-width="0"/><path d="M247.28039,156.72681l1.43969,-1.38827l0.53395,0.55373l-1.43969,1.38827z" fill="#8e97ff" stroke="none" stroke-width="0"/><path d="M235.89494,164.86036l7.13515,-4.83971l1.52111,2.29952l-7.13513,4.83971z" data-paper-data="{&quot;index&quot;:null}" fill="#ffd982" stroke="#000000" stroke-width="1"/><path d="M241.0654,161.77587l8.23787,2.54374l-0.84395,2.62475l-8.23786,-2.54372z" data-paper-data="{&quot;index&quot;:null}" fill="#ffd982" stroke="#000000" stroke-width="1"/><path d="M241.81124,174.18615l-3.19006,-4.3599l1.40598,-1.0039l3.19007,4.35988z" data-paper-data="{&quot;index&quot;:null}" fill="#ffd982" stroke="#000000" stroke-width="1"/><path d="M239.91912,174.6185l-1.76839,-6.04802l1.94051,-0.54304l1.76839,6.048z" data-paper-data="{&quot;index&quot;:null}" fill="#ffd982" stroke="#000000" stroke-width="1"/><g><path d="M255.20861,115.8985c0.45691,-1.30292 1.88354,-1.98874 3.18646,-1.53182c1.30292,0.45691 1.98874,1.88354 1.53182,3.18646c-0.45691,1.30292 -1.88354,1.98874 -3.18646,1.53182c-1.30292,-0.45691 -1.98874,-1.88354 -1.53182,-3.18646z" fill="#848484" stroke="none" stroke-width="0.5"/><path d="M258.15915,114.28394c0.45691,-1.30292 1.88354,-1.98874 3.18646,-1.53182c1.30292,0.45691 1.98874,1.88354 1.53182,3.18646c-0.45691,1.30292 -1.88354,1.98874 -3.18646,1.53182c-1.30292,-0.45691 -1.98874,-1.88354 -1.53182,-3.18646z" fill="#848484" stroke="none" stroke-width="0.5"/><path d="M259.07534,111.29365c0.45691,-1.30292 1.88354,-1.98874 3.18646,-1.53182c1.30292,0.45691 1.98874,1.88354 1.53182,3.18646c-0.45691,1.30292 -1.88354,1.98874 -3.18646,1.53182c-1.30292,-0.45691 -1.98874,-1.88354 -1.53182,-3.18646z" fill="#848484" stroke="none" stroke-width="0.5"/><path d="M256.5753,109.35721c0.45691,-1.30292 1.88354,-1.98874 3.18646,-1.53182c1.30292,0.45691 1.98874,1.88354 1.53182,3.18646c-0.45691,1.30292 -1.88354,1.98874 -3.18646,1.53182c-1.30292,-0.45691 -1.98874,-1.88354 -1.53182,-3.18646z" fill="#848484" stroke="none" stroke-width="0.5"/><path d="M257.40261,106.99807c0.45691,-1.30292 1.88354,-1.98874 3.18646,-1.53182c1.30292,0.45691 1.98874,1.88354 1.53182,3.18646c-0.45691,1.30292 -1.88354,1.98874 -3.18646,1.53182c-1.30292,-0.45691 -1.98874,-1.88354 -1.53182,-3.18646z" fill="#848484" stroke="none" stroke-width="0.5"/><path d="M259.35424,108.60972c0.45691,-1.30292 1.88354,-1.98874 3.18646,-1.53182c1.30292,0.45691 1.98874,1.88354 1.53182,3.18646c-0.45691,1.30292 -1.88354,1.98874 -3.18646,1.53182c-1.30292,-0.45691 -1.98874,-1.88354 -1.53182,-3.18646z" fill="#848484" stroke="none" stroke-width="0.5"/><path d="M255.9073,111.63976c0.45691,-1.30292 1.88354,-1.98874 3.18646,-1.53182c1.30292,0.45691 1.98874,1.88354 1.53182,3.18646c-0.45691,1.30292 -1.88354,1.98874 -3.18646,1.53182c-1.30292,-0.45691 -1.98874,-1.88354 -1.53182,-3.18646z" fill="#848484" stroke="none" stroke-width="0.5"/><path d="M255.45454,114.06402c0.28557,-0.81432 1.33565,-1.1874 2.34541,-0.83329c1.00976,0.35411 1.59683,1.30131 1.31126,2.11563c-0.28557,0.81432 -1.33565,1.1874 -2.34541,0.83329c-1.00976,-0.35411 -1.59683,-1.30131 -1.31126,-2.11563z" fill="#4a2d2d" stroke="none" stroke-width="0.5"/><path d="M257.43298,115.22146c0.45691,-1.30292 1.88354,-1.98874 3.18646,-1.53182c1.30292,0.45691 1.98874,1.88354 1.53182,3.18646c-0.45691,1.30292 -1.88354,1.98874 -3.18646,1.53182c-1.30292,-0.45691 -1.98874,-1.88354 -1.53182,-3.18646z" fill="#4a2d2d" stroke="none" stroke-width="0.5"/><path d="M256.05273,115.00235c0.45691,-1.30292 1.88354,-1.98874 3.18646,-1.53182c1.30292,0.45691 1.98874,1.88354 1.53182,3.18646c-0.45691,1.30292 -1.88354,1.98874 -3.18646,1.53182c-1.30292,-0.45691 -1.98874,-1.88354 -1.53182,-3.18646z" fill="#4a2d2d" stroke="none" stroke-width="0.5"/><path d="M255.39249,114.24096c0.45691,-1.30292 1.88354,-1.98874 3.18646,-1.53182c1.30292,0.45691 1.98874,1.88354 1.53182,3.18646c-0.45691,1.30292 -1.88354,1.98874 -3.18646,1.53182c-1.30292,-0.45691 -1.98874,-1.88354 -1.53182,-3.18646z" fill="#4a2d2d" stroke="none" stroke-width="0.5"/><g stroke="#000000" stroke-width="1.5"><path d="M247.59161,158.33202l-4.48275,12.71527l-6.35763,-2.24137l4.48274,-12.71528z" fill="#ffd982"/><path d="M262.24719,116.76399l-14.70898,41.722l-6.35764,-2.24137l14.70899,-41.722z" fill="#ffffff"/></g></g><path d="M240.15029,158.58784c0,-2.17462 1.76288,-3.9375 3.9375,-3.9375c2.17462,0 3.9375,1.76288 3.9375,3.9375c0,2.17462 -1.76288,3.9375 -3.9375,3.9375c-2.17462,0 -3.9375,-1.76288 -3.9375,-3.9375z" fill="#ff0000" stroke="none" stroke-width="0.5"/></g></g></svg>